<svg width="33" height="26" viewBox="0 0 33 26" fill="none" xmlns="http://www.w3.org/2000/svg">
<g clip-path="url(#clip0_447_3971)">
<path d="M19.99 6.2601C18.685 4.4051 16.535 3.2001 14.1 3.2001C10.23 3.2001 7.075 6.2501 6.905 10.0751C6.875 10.7251 6.455 11.2951 5.84 11.5151C3.66 12.2851 2.1 14.3601 2.1 16.8001C2.1 19.8951 4.605 22.4001 7.7 22.4001H26.1C28.75 22.4001 30.9 20.2501 30.9 17.6001C30.9 15.7601 29.865 14.1601 28.34 13.3551C27.67 13.0001 27.34 12.2301 27.55 11.5001C27.65 11.1551 27.7 10.7851 27.7 10.4001C27.7 8.1901 25.91 6.4001 23.7 6.4001C23.085 6.4001 22.505 6.5401 21.985 6.7851C21.28 7.1201 20.44 6.9001 19.99 6.2601ZM14.1 1.6001C17.075 1.6001 19.705 3.0751 21.3 5.3401C22.025 4.9951 22.84 4.8001 23.7 4.8001C26.795 4.8001 29.3 7.3051 29.3 10.4001C29.3 10.9351 29.225 11.4501 29.085 11.9401C31.115 13.0101 32.5 15.1451 32.5 17.6001C32.5 21.1351 29.635 24.0001 26.1 24.0001H7.7C3.725 24.0001 0.5 20.7751 0.5 16.8001C0.5 13.6601 2.51 10.9951 5.31 10.0051C5.515 5.3301 9.37 1.6001 14.1 1.6001ZM11.935 12.2351L15.935 8.2351C16.245 7.9251 16.755 7.9251 17.065 8.2351L21.065 12.2351C21.375 12.5451 21.375 13.0551 21.065 13.3651C20.755 13.6751 20.245 13.6751 19.935 13.3651L17.3 10.7301V18.4001C17.3 18.8401 16.94 19.2001 16.5 19.2001C16.06 19.2001 15.7 18.8401 15.7 18.4001V10.7301L13.065 13.3651C12.755 13.6751 12.245 13.6751 11.935 13.3651C11.625 13.0551 11.625 12.5451 11.935 12.2351Z" fill="#760216"/>
</g>
<defs>
<clipPath id="clip0_447_3971">
<rect width="32" height="25.6" fill="white" transform="translate(0.5)"/>
</clipPath>
</defs>
</svg>
