<svg width="24" height="24" viewBox="0 0 24 24" fill="none" xmlns="http://www.w3.org/2000/svg">
<path fill-rule="evenodd" clip-rule="evenodd" d="M6.5999 7.4999C6.5999 4.68325 8.88325 2.3999 11.6999 2.3999C14.5166 2.3999 16.7999 4.68325 16.7999 7.4999C16.7999 10.3166 14.5166 12.5999 11.6999 12.5999C8.88325 12.5999 6.5999 10.3166 6.5999 7.4999ZM11.6999 4.1999C9.87736 4.1999 8.3999 5.67736 8.3999 7.4999C8.3999 9.32244 9.87736 10.7999 11.6999 10.7999C13.5224 10.7999 14.9999 9.32244 14.9999 7.4999C14.9999 5.67736 13.5224 4.1999 11.6999 4.1999Z" fill="#24252D"/>
<path fill-rule="evenodd" clip-rule="evenodd" d="M6.8999 16.1999C5.40873 16.1999 4.1999 17.4087 4.1999 18.8999V20.3258C4.1999 20.3476 4.21564 20.3661 4.23707 20.3696C9.17957 21.1765 14.2202 21.1765 19.1627 20.3696C19.1842 20.3661 19.1999 20.3476 19.1999 20.3258V18.8999C19.1999 17.4087 17.9911 16.1999 16.4999 16.1999H16.0909C16.0592 16.1999 16.0278 16.2049 15.9977 16.2147L14.9591 16.5539C12.8413 17.2454 10.5585 17.2454 8.44068 16.5539L7.40207 16.2147C7.372 16.2049 7.34057 16.1999 7.30895 16.1999H6.8999ZM2.3999 18.8999C2.3999 16.4146 4.41462 14.3999 6.8999 14.3999H7.30895C7.53034 14.3999 7.75033 14.4349 7.96079 14.5036L8.99941 14.8428C10.7541 15.4157 12.6457 15.4157 14.4004 14.8428L15.439 14.5036C15.6495 14.4349 15.8695 14.3999 16.0909 14.3999H16.4999C18.9852 14.3999 20.9999 16.4146 20.9999 18.8999V20.3258C20.9999 21.2297 20.3448 22.0004 19.4528 22.146C14.3182 22.9843 9.08162 22.9843 3.94703 22.146C3.05496 22.0004 2.3999 21.2297 2.3999 20.3258V18.8999Z" fill="#24252D"/>
</svg>
