<svg width="20" height="20" viewBox="0 0 20 20" fill="none" xmlns="http://www.w3.org/2000/svg">
<path fill-rule="evenodd" clip-rule="evenodd" d="M7.30932 3.40675C6.19547 3.28234 5.04246 3.28234 3.92861 3.40675C3.65796 3.43698 3.44451 3.65115 3.41407 3.91126C3.28106 5.04778 3.28106 6.19592 3.41407 7.33243C3.44451 7.59255 3.65796 7.80672 3.92861 7.83695C5.04246 7.96135 6.19547 7.96135 7.30932 7.83695C7.57997 7.80672 7.79341 7.59255 7.82385 7.33243C7.95687 6.19592 7.95687 5.04778 7.82385 3.91126C7.79341 3.65115 7.57997 3.43698 7.30932 3.40675ZM3.78262 2.10143C4.9935 1.96619 6.24443 1.96619 7.4553 2.10143C8.32348 2.1984 9.02659 2.88138 9.12927 3.75868C9.27414 4.99657 9.27414 6.24712 9.12927 7.48501C9.02659 8.36232 8.32348 9.0453 7.4553 9.14226C6.24443 9.27751 4.9935 9.27751 3.78262 9.14226C2.91444 9.0453 2.21133 8.36232 2.10866 7.48501C1.96378 6.24712 1.96378 4.99657 2.10866 3.75868C2.21133 2.88138 2.91444 2.1984 3.78262 2.10143Z" fill="white"/>
<path fill-rule="evenodd" clip-rule="evenodd" d="M7.30932 12.1631C6.19547 12.0386 5.04246 12.0386 3.92861 12.1631C3.65796 12.1933 3.44451 12.4075 3.41407 12.6676C3.28106 13.8041 3.28106 14.9522 3.41407 16.0887C3.44451 16.3488 3.65796 16.563 3.92861 16.5932C5.04246 16.7177 6.19547 16.7177 7.30932 16.5932C7.57997 16.563 7.79341 16.3488 7.82385 16.0887C7.95687 14.9522 7.95687 13.8041 7.82385 12.6676C7.79341 12.4075 7.57997 12.1933 7.30932 12.1631ZM3.78262 10.8577C4.9935 10.7225 6.24443 10.7225 7.4553 10.8577C8.32348 10.9547 9.02659 11.6377 9.12927 12.515C9.27414 13.7529 9.27414 15.0034 9.12927 16.2413C9.02659 17.1186 8.32348 17.8016 7.4553 17.8986C6.24443 18.0338 4.9935 18.0338 3.78262 17.8986C2.91444 17.8016 2.21133 17.1186 2.10866 16.2413C1.96378 15.0034 1.96378 13.7529 2.10866 12.515C2.21133 11.6377 2.91444 10.9547 3.78262 10.8577Z" fill="white"/>
<path fill-rule="evenodd" clip-rule="evenodd" d="M16.0714 3.40675C14.9575 3.28234 13.8045 3.28234 12.6907 3.40675C12.42 3.43698 12.2066 3.65115 12.1761 3.91126C12.0431 5.04778 12.0431 6.19592 12.1761 7.33243C12.2066 7.59255 12.42 7.80672 12.6907 7.83695C13.8045 7.96135 14.9575 7.96135 16.0714 7.83695C16.342 7.80672 16.5555 7.59255 16.5859 7.33243C16.7189 6.19592 16.7189 5.04778 16.5859 3.91126C16.5555 3.65115 16.342 3.43698 16.0714 3.40675ZM12.5447 2.10143C13.7556 1.96619 15.0065 1.96619 16.2174 2.10143C17.0856 2.1984 17.7887 2.88138 17.8913 3.75868C18.0362 4.99657 18.0362 6.24712 17.8913 7.48501C17.7887 8.36232 17.0856 9.0453 16.2174 9.14226C15.0065 9.27751 13.7556 9.27751 12.5447 9.14226C11.6765 9.0453 10.9734 8.36232 10.8707 7.48501C10.7259 6.24712 10.7259 4.99657 10.8707 3.75868C10.9734 2.88138 11.6765 2.1984 12.5447 2.10143Z" fill="white"/>
<path fill-rule="evenodd" clip-rule="evenodd" d="M16.0714 12.1631C14.9575 12.0386 13.8045 12.0386 12.6907 12.1631C12.42 12.1933 12.2066 12.4075 12.1761 12.6676C12.0431 13.8041 12.0431 14.9522 12.1761 16.0887C12.2066 16.3488 12.42 16.563 12.6907 16.5932C13.8045 16.7177 14.9575 16.7177 16.0714 16.5932C16.342 16.563 16.5555 16.3488 16.5859 16.0887C16.7189 14.9522 16.7189 13.8041 16.5859 12.6676C16.5555 12.4075 16.342 12.1933 16.0714 12.1631ZM12.5447 10.8577C13.7556 10.7225 15.0065 10.7225 16.2174 10.8577C17.0856 10.9547 17.7887 11.6377 17.8913 12.515C18.0362 13.7529 18.0362 15.0034 17.8913 16.2413C17.7887 17.1186 17.0856 17.8016 16.2174 17.8986C15.0065 18.0338 13.7556 18.0338 12.5447 17.8986C11.6765 17.8016 10.9734 17.1186 10.8707 16.2413C10.7259 15.0034 10.7259 13.7529 10.8707 12.515C10.9734 11.6377 11.6765 10.9547 12.5447 10.8577Z" fill="white"/>
</svg>
