<svg width="14" height="14" viewBox="0 0 14 14" fill="none" xmlns="http://www.w3.org/2000/svg">
<path fill-rule="evenodd" clip-rule="evenodd" d="M0.315424 0.315424C0.735988 -0.105141 1.41786 -0.105141 1.83842 0.315424L7 5.477L12.1616 0.315424C12.5821 -0.105141 13.264 -0.105141 13.6846 0.315424C14.1051 0.735988 14.1051 1.41786 13.6846 1.83842L8.523 7L13.6846 12.1616C14.1051 12.5821 14.1051 13.264 13.6846 13.6846C13.264 14.1051 12.5821 14.1051 12.1616 13.6846L7 8.523L1.83842 13.6846C1.41786 14.1051 0.735988 14.1051 0.315424 13.6846C-0.105141 13.264 -0.105141 12.5821 0.315424 12.1616L5.477 7L0.315424 1.83842C-0.105141 1.41786 -0.105141 0.735988 0.315424 0.315424Z" fill="#760216"/>
</svg>
