<svg width="22" height="22" viewBox="0 0 22 22" fill="none" xmlns="http://www.w3.org/2000/svg">
<path fill-rule="evenodd" clip-rule="evenodd" d="M2.29695 2.38448H1.29758C0.691377 2.38448 0.199951 1.89551 0.199951 1.29234C0.199951 0.689174 0.691377 0.200209 1.29758 0.200209H2.57197C2.57885 0.200209 2.5859 0.200206 2.59308 0.200202C2.6937 0.200155 2.82245 0.200095 2.93785 0.208884C3.0752 0.219345 3.2724 0.246341 3.48484 0.342945C3.76146 0.468729 3.99588 0.671022 4.16015 0.925699C4.2863 1.12129 4.34105 1.31172 4.37088 1.44552C4.39595 1.55796 4.4141 1.68478 4.42828 1.7839C4.42929 1.79098 4.43028 1.79791 4.43126 1.80469L4.75842 4.08335H19.8678C19.8767 4.08335 19.8857 4.08335 19.8949 4.08334C20.0321 4.08329 20.1972 4.08322 20.3415 4.09573C20.5051 4.10993 20.7602 4.1474 21.0198 4.29795C21.3445 4.4862 21.5913 4.78304 21.7165 5.13556C21.8165 5.41746 21.8058 5.67384 21.7892 5.83647C21.7745 5.97983 21.7436 6.14115 21.7179 6.27518C21.7161 6.28418 21.7144 6.29305 21.7128 6.30178L20.4145 13.0835C20.3343 13.5024 20.2632 13.8739 20.1803 14.1805C20.0915 14.509 19.971 14.8371 19.7562 15.1476C19.4354 15.6112 18.9913 15.9768 18.4736 16.2036C18.1269 16.3555 17.7804 16.4119 17.4394 16.4373C17.1212 16.4609 16.7412 16.4609 16.3126 16.4609H7.88855C7.43788 16.4609 7.03949 16.4609 6.70703 16.4355C6.35161 16.4083 5.99004 16.3479 5.63121 16.1839C5.09722 15.9397 4.64551 15.5473 4.33043 15.0538C4.1187 14.7221 4.00975 14.3738 3.93479 14.027C3.86467 13.7027 3.81098 13.3099 3.75024 12.8656L2.71933 5.32633L2.29695 2.38448ZM5.06353 6.26762L5.92036 12.5338C5.98774 13.0266 6.03071 13.3352 6.08096 13.5677C6.12832 13.7868 6.16636 13.8558 6.18347 13.8826C6.27169 14.0208 6.39817 14.1307 6.54769 14.199C6.57669 14.2123 6.65056 14.2405 6.87514 14.2576C7.1134 14.2759 7.42655 14.2766 7.9264 14.2766H16.2761C16.7522 14.2766 17.0493 14.2759 17.2759 14.2591C17.4886 14.2432 17.5599 14.2173 17.589 14.2046C17.7339 14.1411 17.8582 14.0387 17.9481 13.9089C17.9661 13.8829 18.005 13.8181 18.0604 13.6131C18.1195 13.3948 18.1758 13.1045 18.2648 12.6391L19.4846 6.26762H5.06353ZM6.05398 19.7373C6.05398 18.598 6.98223 17.6744 8.12728 17.6744C9.27233 17.6744 10.2006 18.598 10.2006 19.7373C10.2006 20.8766 9.27233 21.8002 8.12728 21.8002C6.98223 21.8002 6.05398 20.8766 6.05398 19.7373ZM13.8593 19.7373C13.8593 18.598 14.7876 17.6744 15.9326 17.6744C17.0777 17.6744 18.0059 18.598 18.0059 19.7373C18.0059 20.8766 17.0777 21.8002 15.9326 21.8002C14.7876 21.8002 13.8593 20.8766 13.8593 19.7373Z" fill="#932121"/>
</svg>
